<mxfile host="65bd71144e">
    <diagram id="TmVtsNzHo5Qq3lGBEsob" name="Page-1">
        <mxGraphModel dx="1535" dy="630" grid="1" gridSize="10" guides="1" tooltips="1" connect="1" arrows="1" fold="1" page="1" pageScale="1" pageWidth="1169" pageHeight="1654" math="0" shadow="0">
            <root>
                <mxCell id="0"/>
                <mxCell id="1" parent="0"/>
                <mxCell id="10" value="" style="rounded=1;whiteSpace=wrap;html=1;dashed=1;dashPattern=8 8;fillColor=#b1ddf0;strokeColor=#10739e;" vertex="1" parent="1">
                    <mxGeometry x="370" y="410" width="480" height="200" as="geometry"/>
                </mxCell>
                <mxCell id="9" value="" style="rounded=1;whiteSpace=wrap;html=1;dashed=1;dashPattern=8 8;fillColor=#b0e3e6;strokeColor=#0e8088;" vertex="1" parent="1">
                    <mxGeometry x="360" y="60" width="690" height="290" as="geometry"/>
                </mxCell>
                <mxCell id="12" style="edgeStyle=none;html=1;" edge="1" parent="1" source="2" target="3">
                    <mxGeometry relative="1" as="geometry"/>
                </mxCell>
                <mxCell id="2" value="&lt;b&gt;NBA API&lt;/b&gt;" style="aspect=fixed;sketch=0;html=1;dashed=0;whitespace=wrap;verticalLabelPosition=bottom;verticalAlign=top;fillColor=#2875E2;strokeColor=#ffffff;points=[[0.005,0.63,0],[0.1,0.2,0],[0.9,0.2,0],[0.5,0,0],[0.995,0.63,0],[0.72,0.99,0],[0.5,1,0],[0.28,0.99,0]];shape=mxgraph.kubernetes.icon2;kubernetesLabel=1;prIcon=api" vertex="1" parent="1">
                    <mxGeometry x="240" y="200" width="50" height="48" as="geometry"/>
                </mxCell>
                <mxCell id="17" style="edgeStyle=none;html=1;exitX=1;exitY=0.5;exitDx=0;exitDy=0;entryX=0;entryY=0.5;entryDx=0;entryDy=0;" edge="1" parent="1" source="3" target="5">
                    <mxGeometry relative="1" as="geometry">
                        <mxPoint x="580" y="224" as="targetPoint"/>
                    </mxGeometry>
                </mxCell>
                <mxCell id="3" value="Ingestion" style="rounded=1;whiteSpace=wrap;html=1;fillColor=#60a917;strokeColor=#2D7600;fontColor=#ffffff;" vertex="1" parent="1">
                    <mxGeometry x="400" y="194" width="120" height="60" as="geometry"/>
                </mxCell>
                <mxCell id="21" value="" style="edgeStyle=none;html=1;" edge="1" parent="1" source="5">
                    <mxGeometry relative="1" as="geometry">
                        <mxPoint x="800" y="224" as="targetPoint"/>
                    </mxGeometry>
                </mxCell>
                <mxCell id="5" value="Processing" style="rounded=1;whiteSpace=wrap;html=1;fillColor=#60a917;fontColor=#ffffff;strokeColor=#2D7600;" vertex="1" parent="1">
                    <mxGeometry x="610" y="194" width="120" height="60" as="geometry"/>
                </mxCell>
                <mxCell id="7" value="Orchestration" style="rounded=1;whiteSpace=wrap;html=1;fillColor=#60a917;fontColor=#ffffff;strokeColor=#2D7600;" vertex="1" parent="1">
                    <mxGeometry x="400" y="90" width="330" height="40" as="geometry"/>
                </mxCell>
                <mxCell id="35" style="edgeStyle=none;html=1;entryX=0;entryY=0.5;entryDx=0;entryDy=0;" edge="1" parent="1" source="8" target="33">
                    <mxGeometry relative="1" as="geometry"/>
                </mxCell>
                <mxCell id="8" value="Code" style="rounded=1;whiteSpace=wrap;html=1;fillColor=#1ba1e2;fontColor=#ffffff;strokeColor=#006EAF;" vertex="1" parent="1">
                    <mxGeometry x="430" y="470" width="120" height="60" as="geometry"/>
                </mxCell>
                <mxCell id="11" value="" style="dashed=0;outlineConnect=0;html=1;align=center;labelPosition=center;verticalLabelPosition=bottom;verticalAlign=top;shape=mxgraph.weblogos.github" vertex="1" parent="1">
                    <mxGeometry x="420" y="510" width="40" height="35" as="geometry"/>
                </mxCell>
                <mxCell id="23" value="No queing needed (periodic ingestion)" style="whiteSpace=wrap;html=1;shape=mxgraph.basic.document;fillColor=#fad7ac;strokeColor=#b46504;fontSize=8;" vertex="1" parent="1">
                    <mxGeometry x="540" y="165" width="50" height="50" as="geometry"/>
                </mxCell>
                <mxCell id="24" value="" style="sketch=0;points=[[0,0,0],[0.25,0,0],[0.5,0,0],[0.75,0,0],[1,0,0],[0,1,0],[0.25,1,0],[0.5,1,0],[0.75,1,0],[1,1,0],[0,0.25,0],[0,0.5,0],[0,0.75,0],[1,0.25,0],[1,0.5,0],[1,0.75,0]];outlineConnect=0;fontColor=#232F3E;fillColor=#ED7100;strokeColor=#ffffff;dashed=0;verticalLabelPosition=bottom;verticalAlign=top;align=center;html=1;fontSize=12;fontStyle=0;aspect=fixed;shape=mxgraph.aws4.resourceIcon;resIcon=mxgraph.aws4.lambda;" vertex="1" parent="1">
                    <mxGeometry x="420" y="240" width="30" height="30" as="geometry"/>
                </mxCell>
                <mxCell id="25" value="" style="sketch=0;points=[[0,0,0],[0.25,0,0],[0.5,0,0],[0.75,0,0],[1,0,0],[0,1,0],[0.25,1,0],[0.5,1,0],[0.75,1,0],[1,1,0],[0,0.25,0],[0,0.5,0],[0,0.75,0],[1,0.25,0],[1,0.5,0],[1,0.75,0]];outlineConnect=0;fontColor=#232F3E;fillColor=#ED7100;strokeColor=#ffffff;dashed=0;verticalLabelPosition=bottom;verticalAlign=top;align=center;html=1;fontSize=12;fontStyle=0;aspect=fixed;shape=mxgraph.aws4.resourceIcon;resIcon=mxgraph.aws4.lambda;" vertex="1" parent="1">
                    <mxGeometry x="620" y="240" width="30" height="30" as="geometry"/>
                </mxCell>
                <mxCell id="26" value="&lt;b&gt;Database&lt;/b&gt;" style="image;html=1;image=img/lib/clip_art/computers/Database_128x128.png" vertex="1" parent="1">
                    <mxGeometry x="790" y="203.5" width="50" height="41" as="geometry"/>
                </mxCell>
                <mxCell id="27" value="" style="outlineConnect=0;dashed=0;verticalLabelPosition=bottom;verticalAlign=top;align=center;html=1;shape=mxgraph.aws3.rds;fillColor=#2E73B8;gradientColor=none;fontStyle=1" vertex="1" parent="1">
                    <mxGeometry x="830" y="216" width="30" height="32" as="geometry"/>
                </mxCell>
                <mxCell id="28" value="Triggered periodically (daily)" style="whiteSpace=wrap;html=1;shape=mxgraph.basic.document;fillColor=#fad7ac;strokeColor=#b46504;fontSize=8;" vertex="1" parent="1">
                    <mxGeometry x="390" y="140" width="50" height="50" as="geometry"/>
                </mxCell>
                <mxCell id="29" value="" style="outlineConnect=0;dashed=0;verticalLabelPosition=bottom;verticalAlign=top;align=center;html=1;shape=mxgraph.aws3.step_functions;fillColor=#D9A741;gradientColor=none;" vertex="1" parent="1">
                    <mxGeometry x="680" y="93.5" width="26.5" height="33" as="geometry"/>
                </mxCell>
                <mxCell id="30" value="Relational Database for fast queries" style="whiteSpace=wrap;html=1;shape=mxgraph.basic.document;fillColor=#fad7ac;strokeColor=#b46504;fontSize=8;" vertex="1" parent="1">
                    <mxGeometry x="830.88" y="153.5" width="50" height="50" as="geometry"/>
                </mxCell>
                <mxCell id="31" value="Monitoring" style="rounded=1;whiteSpace=wrap;html=1;fillColor=#60a917;fontColor=#ffffff;strokeColor=#2D7600;" vertex="1" parent="1">
                    <mxGeometry x="745.25" y="90" width="110" height="40" as="geometry"/>
                </mxCell>
                <mxCell id="32" value="" style="sketch=0;points=[[0,0,0],[0.25,0,0],[0.5,0,0],[0.75,0,0],[1,0,0],[0,1,0],[0.25,1,0],[0.5,1,0],[0.75,1,0],[1,1,0],[0,0.25,0],[0,0.5,0],[0,0.75,0],[1,0.25,0],[1,0.5,0],[1,0.75,0]];points=[[0,0,0],[0.25,0,0],[0.5,0,0],[0.75,0,0],[1,0,0],[0,1,0],[0.25,1,0],[0.5,1,0],[0.75,1,0],[1,1,0],[0,0.25,0],[0,0.5,0],[0,0.75,0],[1,0.25,0],[1,0.5,0],[1,0.75,0]];outlineConnect=0;fontColor=#232F3E;fillColor=#E7157B;strokeColor=#ffffff;dashed=0;verticalLabelPosition=bottom;verticalAlign=top;align=center;html=1;fontSize=12;fontStyle=0;aspect=fixed;shape=mxgraph.aws4.resourceIcon;resIcon=mxgraph.aws4.cloudwatch_2;" vertex="1" parent="1">
                    <mxGeometry x="841.75" y="111.75" width="28.25" height="28.25" as="geometry"/>
                </mxCell>
                <mxCell id="33" value="DevOps" style="rounded=1;whiteSpace=wrap;html=1;fillColor=#1ba1e2;fontColor=#ffffff;strokeColor=#006EAF;" vertex="1" parent="1">
                    <mxGeometry x="586.5" y="470" width="120" height="60" as="geometry"/>
                </mxCell>
                <mxCell id="34" value="" style="shape=image;verticalLabelPosition=bottom;labelBackgroundColor=default;verticalAlign=top;aspect=fixed;imageAspect=0;image=data:image/png,iVBORw0KGgoAAAANSUhEUgAAAMYAAAC7CAYAAAA+J+FCAAAAAXNSR0IArs4c6QAAAARnQU1BAACxjwv8YQUAAAAJcEhZcwAADsMAAA7DAcdvqGQAACtySURBVHhe7d0LvGVj/fjxZUalVCSUS8ilwYySUG4pRVSEEhKZRkQlIZVLppLkR7pIKJGEbi7RhEGUSISKJkqiUChRSanmf96rtfpvZ9Zez7P2Xvt2zvq8Xvt19t7nnH1Zz/N9nu/9WWjxJZ49P2lh9uGHJnvtOSt7tCB///vfk8svvzx5xzvekfzhD3/Inq3O8ssvn6y++urJEksskTzzmc9MllpqqWSVVVZJfz7xiU9Mnva0p2V/mSSPPfZY8uijjyZ//vOfk1/96lfJ73//++T+++9P3/8Xv/hF8rvf/S77y86YM2dO8pKXvCR58pOfnD3TMJk46eRTktkfOiJ79F/+JxhrrrlG8snj/i9Za8b09BdF/PGPf0zOOOOM5Igjjkj++te/Zs/GQxg23XTTVADcCMZqq63W0YT85z//mQqF289//vNUOC699NKOhfW4445Ldthhh1RIGyYfP7v5lmS/97x3bC7NSx+ngvGSl6yfnHrKycniiy+WPlmEVfpTn/pU8slPfjJ7Jp4111wz2W233ZJVV101edGLXpQ8+9nPzn5TH7/97W+Tn/70p+nt/PPPT37yk59kv4nnfe97XzJr1qzkOc95TvZMw2Tiz39+KJk5a8/khz/8UbLQhhu/fP43v35WqVCYdB/60IeSr3zlK9kzcbzgBS9Idt9992SttdZKVZWpU6dmv+kdVD07yHXXXZccdthhlXe2vffeO3nPe97TCMckhXC8foedk4V+dN3180Pq07vf/e7km9/8ZvZMmKc+9anJoYcemrz85S9P1SU2Q7/JBeSSSy5JPvzhD2fPxtEIx+SGWrXQ2AR6nPHdyr///e/kLW95SyWheOUrX5m8//3vT9ZZZ52hMGb/8pe/pOrVUUcdldogsey3337JgQce2Ngck5SpYyv77Oz+AsycOTP5xje+kT0KQ0c/9thjU1viCU94QvbsYHnSk56UrLDCCslmm22WLLLIIskPfvCD7Dfl/PCHP0x3vrXXXjt9jYbJRdsd42Mf+1glFeRLX/pS8sY3vjF7NLyceuqpyT777JM9CuN7vf71r++LfdQwPBQKxre//e3kDW94Q/aoHKvqZZddljz/+c/Pnhl+vvvd7yYf+MAHoj1X11577Uh9v4buWUAweKBe/epXp4G0EFSmb33rW8lzn/vc7JnRgUp1+OGHR6tW99133+OCjg0TmynZzxRBM96kGKHYaKONkrlz546kUMDn//jHP57+jIGXqmHy8DjBOO+885Krr746e9Qek+kTn/hEx4E6rlRuYDf3B4Vgo/jMs571rOyZ9ojhUMEaJgf/U6V++ctfpno3+6IMQTuG+Utf+tLKBim3KVXN7c4770yfW3HFFdN4gdug9PhYm0oEX1ykceFOfFLBsGqffPLJafyhDIb20Ucfneyyyy6VgnZiCVZcE7BdLOE1r3lNGgPZdttte5IyEuLEE0+MUpfEQwQ8GyY2aRzDSk7fDiXgmTh77LFH8pSnPCV7Jowcq2OOOSZVWX79619nzy6IHeviiy9OHnjggXQnet7znpf9pj9MmzYtzeIVvyjDIrLBBhs0u8YEZ+oBBxww+9xzzw3mQVnR3/72t6fBslhEzqldVRIPf/aznyU33HBD8tBDDyUrrbRSsthi7XO46kQQb+mll05tLCnt7aAGSo3fZJNNsmcaJiJTt99++9k8UX/605+ypxaECqX+Ysstt8yeiUPUXIo6b1cVfJYrr7wyFRDRavlWU6Y8zk/QExjhUuO/9rWvZc8UI6q/3nrrNbvGBGbKj3/846B79nWve12y0047ZY/iIAwM1U7qNnLEGORq7bXXXqkHqx9wALChymAnCWo2TFymnHTSSdndYgTxtttuu8oJgdK+b7755uxRd1DzrOQM5Kq7T1V4x3zfENdff32qVjVMTKaE0iJkybIvqnLbbbclt99+e/aoHhj/3MQmJPulV4hvSD0vQzEUp0XDxKRUcWdbdJoY+I9//KNUjbITCRR6jyoQZB6r008/vWfqFXexwqoyfDcq6CADlA29Q4Subdo5A5ObtRPDl6rB/dqOrbbaKjXo6fR2gDJPUBFiIlZsAcJnPOMZtaeGc0lzNc+b998a4CK85/rrr98Y4ROQ0hm/9dZb9yzdWsyAO5YLWJwjpLoUwQgWEDz++OPTOEidyAGbPr19ZSMIZ7cdShqGk1LB2H777bN7veFf//pX+lMJ7EEHHZTWPjCyq0ClUTey//77p25WUfa6oE5JAynDTtdLe6dhMLQVDD79ftY80+vZM2effXZaCVgVuwfhkkrOBV0H6667brLGGmtkj4q58cYb035XDROLtoIhdjAIeIQOOOCANDgoYbEKUlo+97nPpYIl4t7tSq7+QjS8DG7psuBow2jSVjC22GKL7F7/MSG5iM8666yOdg+BQerVjjvuGF2I1A6tf8rS0r1+45maeLQVjJBu3Q8YwLNnz07VpE4+D+NYFNtrdLp78JqFvE512jUNw0GhYIgtDFMfV/EOdsMHP/jB7Jl4qFcyhztNKxEz4Q4uQzCz1xH5hv5SKBj6yw4jCqnELjoJDEorUXNSdeeIqfN++OGHG8/UBKNQMBjAw4om0FQrGcGx9do5Z555ZvK9730vexTP4osvnt0rRiAwdz03TAwKBWMQFXRVUUXHAyUwKL0kBikcdpyqxnKoBkUso1GlJhaFgrHoootm94Ybu8dHP/rRtNxUU7QYuFet8FV4+tOfnt0rxtkdDROLQsEYJTgJuHYF9pxxEYp9aJ5WNe4QMr4JmhSXhonDyAtGjt3DwS8zZszInimmk9ympnft5GPCCAbbQTKiFI0yOmk4LYW+DMb5sDSxbqiHQsEYpRQHwTUnPe25555p0wVnYpRB1araavPBBx/M7hUzKjZZQzyFghGaCMOCoN/LXvaytB9WbIPmjTfeOFluueWyR3GE1K9mt5h4FAqGAx+HHU0STPLQDtGKtBK5T1VPeAr128pPmm2YOBQKRkz/2kEgViD/iScq1OKmiHe+852Vg4Ii2qG4hyrChRdeOHvUMBEoFAyqwzClOBAIFXpve9vbos/taEX6iFhH1RZAUGsRagGkbqXZMSYWhYKBu+66K7s3WMQI5Dk5s6OTXUI/XP127RadJEbydv3tb3/LHhUjU6A5cWli0VYwrrjiiuzeYOBt0nbfAZGOBusk/iAbV2R85syZHU9cglEWKbcbNcb3xKOtYJxzzjnZvf5jMmpwYEJXOTE2R4ms+nGlrt0eLaCXbpkq9apXvSoYGW8YPdoKhgzWftsZbAndBg855JC0Ai/kDRqPRgonnHBCWphEOLpVb+64447gZ+AZW3LJJbNHDROFtoKBTlK0O4XaJB6h2yChrIpKPY0U/Kzr+DMJhyHXNcN7mIq6GuqhVDBOOeWU7F5v0MlcVZ0Vni0hjbwqdglqkwRCdSR1eYfsltJLymwb7z0KKfoN1SkVDNHkXjUuNvHOOOOMZPfdd09LT6sE6nLUYjjoRcp53Seq3nTTTemOUYaGdFWj6A2jQalgKOzp1a7BqGZHdKI24aqrrkoPyNSooBeuUkIR6jCiIVuzY0xMSgUDJmAnu8YSSywRXVkXizY22umIRPey/JZXTIS9DPGRVVZZJXvUMNGYEuq8YdWk8lTlhS98Ydqbtg4IhGIkh+2zR3oJFU9yYmgnI5jD0GKooTdMcd5ECLlTVtEqKBwKFQ3FYGVWnfflL3+5L8cdsy1Ch+kwunWCb7xRE5cp1IFQp3Grp4Bf1SYCO++8c8eraq425ZHrfkxC0fYLLrggmMKuvVDMgtIwukxhPL7iFa8obUMJxvLll1+ePYrDCt9Ji03BuVNPPTXtYduPXQJUKHEbHrIy7Bbal9btBWsYLlLjm74cavnPQyUqXfUcCpNcg+ZYxCTYEY4G6Ofkcwb5Rz7ykexRe1QActM2TGxSwch3jZAXiUolCFe11SXDWXcOhn5RB0HP+Z2/cRBMXZHrWKSi6HIYUqHsqiLzjW0x8VlozG6Y747JISUjJvpMPXKrOkHo8Oob7rvvvjRj1XFe4hCS8DQUGJR6ohowJqU9T05smPj8TzBATWKIx7TOV/ijG2Cn0OmHoYbBTqGJQgwEurEtJgePC/BxsaqQi2mYbHdhc3TKMAiFw2VihYKd1AjF5GGByLfDIlXLxUDfNrlGETuFlJQY7KKdnHXeMLo8TpXKYW8QjtjTiEwcxx6PworKcaAxW+xOoXnCnDlzmpruSUZhrpRJIEEvNjjHYBeEY6OwHYaRPNXD6a6xQsE167s1QjH5KBQMCKxZWQW0YpB0t+uuuyYXXXRR6n0aJnweAUoH7sc2VLBTHHvsscnKK6+cPdMwmZh66KGHts3KE08Q47jmmmuCnTKgDJTa4RAVahW//5QpbWWvL+RJkAqhYktl7RTc0ZtssknT6GCSUmhjtEIFsdqqw67SqcOKK0Isgt2vtI5WJD0ql3Xya2z7ThCKww47LNlss82aQN4kJigYYIzPnTs3jU5XrbSTHSvLVkJhPwSEHXHJJZekGcFVi6AIBS8boW7sislNlGDAzsF+kE9UZQXOMdnUZ/hJWDQRqAvdPC6++OLk+uuvT26++eaOPh9bys44ffr0oYixNAyWaMHI4Xni2em0JJXdwW4xESUvKg+1k4TO0m5FOomdQfmpCkN9n26//fZgK812yBGzIzZlqg05lQUDY/+T9pG1wtaJCTpt2rT0MEjn3jnJyKEtdoS77747zfCt2msqhHY7X/jCF7JHvYEqqg2PEmFpJb5TfhiN76gMePXVV0+dHU10/b/wJBp31815La2H95gbSy+9dHoGu4bavVB7OxKMHC7a/fbbr6P2mYNG2stpp51We0SbEBhEap2ip05aAul6ss0226QZzwRlots7rhlBuOyyy9Ly5U4WXEFmzp511103XWy6vWZdCQZ8oZkzZya33npruqIPO3alzTffPPWyVVHfymB/yRq2qxG2ToShHWwyp0WpGFxsscUmjKeM1vHII4+kwnDyySdHZ1nEQEi0ZdLaSNZ2JzZj14KRY/cQPOMNGsYdhE2jJHW77bZLttxyy9oM7NzekVDZqd0Vgx2O48Mu0iv1oR/YHe68885UILjFO7ULY6ANWLTZslXtx9oEA1YB6oMmaH4Og4Aw9rmKdS0xqeraJeyU1CU7RGw0vQ64lPfaa6/0iLV+F3R1CxvL4qHZRCeew05RR2MH4eiJ3XFrFYwciXqEQ5DNylDnNhkLl/CGG26YeryoIXUatTxz0tANcN3OgFjYIQS+zt2vl9Aozj333PSsk0FAY3BGCtstZkHpiWDkWFVvu+22VN3gVr3wwgt7aof48upJdCAXJ1FfUrdOboBF0+v2yHWC3dDuwQEyrLYHLYINobfwoBaRViwos2bNSjMyyuipYLRiF2Gc+mkn+f73v59Osm6gdzufgiBw81KTGFx1qUvjcWzy6aef3lGf3V7C2FQbU2fQtA6oTgSiTmdEHVBHqVZqj9rRN8FoxSpickm/KBMOO4AvIa7BBceAWmaZZdLJz4/tQEgrZT+8NT5rbGFTCN8pr5KsKzZjJdSYzi45DFA31ejUsbPaGfNGHa5VXVqHFCcFa0UMRDAgeKNNTpnharCdipQPNl06v/WTboSCELAF8vPFZeu2epR4afDwww+niwWbrNMVlhfGZx20cBAKE65TjcAOyFGiHkgwD+Ov2WOPPZZmO3CAdLOLU0Nds/EMTDBiVhQ7hqKiQZaVUp/Ut1dFs4g3v/nNHat1HBa2+qqrIw/MEUccMTC1ivp06KGHVvbUWUDUv4jbdIKFVgeXUMO8Iooaewy2WCIAd68UikFhcOnIsVCPXGSqogvdja1jgjj/j9PCpIkl/8xVe3/Vgff03lWEwnfTT4wXs1OhAE8TDcS1b9e/rB1Fn3moBQNWTqtBvxG0402J0f8Ngl3NRO6mpVARglMmjcELNcTLoYp9/etf72uZsffynrFqIDXJeYm+W93lCNQ4gWYu+xgBMcbGurVx+dALBr93v71AVj7vGxN/MVlFpM8888yeZudSqwQTDXYMdq5+nqHovbxnDBYRvYlFpXsFO4uaLhOcSh7CWLu++U5bWtraS2RMXnnllcm8efOyZ9pDJZEcpnNhr7Hy2VbZPyGoAewPxnU/UjSWXXbZZIMNNkjuv//+5JZbbsmeLUYpMgPV31dRKzpBnEp/gB/96EfZM+2RzWwhkU3cazhpzBudLmkdrlsZDHkLnR1s6HcM2J5tuf1QDTR3jonOEgq5Pnrt9jNviS7NuGVkhyDgVvLc89ULjIn3GK+jF0EoJG/2M5WFG3+nnXZKa/hjut447sIcGAnBgCQ9Gay9hOEWk8JiVRFxlqU7iGQ+agJDM8ZYtTrbnXvFPffck75HCOqTOMsg8rsIh5R0NURiImXI5eLwGBnB8IE/85nP9HTXoBJ89rOfzR61R3zFKjQIocgxwbgmQwPN3fud73ynJ9fNaxqXkEvZZ+QpGmRknnDYsULHXUBPtZERDJgIn//857NH9ULduOKKK4KDbJV+17ve1fNIeww8VlJBQuyzzz49UacIhtcOYafoRyOMEBJJXa/QTmsOjJRgwBeL0WerIuExZHAzYr1/r3KxOiHWPcxGq5sYrx2PUC+9T1Wxa9k5Qg6JkRMMxJ5nUQW1xaGYhfMK+xGF993WWmuttKuKn/pjlRFzYlW7nKBucD5iiLPPPju71zuowL4f28tOLluhDIKqsq+MkRQMEI6iHJdOoBJIiQ8RY390A+Of3913s53nCXMabJd91xhhVRjk9evCa4V2DLsFda+XWDQsHlKH8sI4LvSlllqq9PuG+hePrGBAYp/6C3lX3ejQBCOm0XMvB5kq5/u0ixyff/75pTtHzElPVQ8XLSPmtUSTe4nrse+++xaWx3qOa7gdocVkpAUDMjh5GsQeBHE6WRVj0j6q5ExVRbRVAl2ZcFrxy85al40aQgVdXcS8llLSXpELRZmzxIJZljMms7YdIy8YcHF4R/ip6bTynOidsS7KsgmX0yvbwsBxQ3eSFdqKrIDQZ5RpUBehIKhJ16vyAEKhc0qZUMAiWRbDkbHQjqFOO88jlVVzpXgcHElA91TQlB98yTBT3NSK5wQPQxOzk50oBPXJThErFJLu2nl4LAJc2SH3rVJj6EjfCa6f/w1FkTkEelGPHrNT5Mgrk8PWrt6f+q3IrYihFgxhfK1i/F2MutMO6RuMMRdhkUUWyZ79/4T63QroOUqgDDuUwhnwXoUSCgkamyLGtoFB/vSnP10aOWYMh5IMfZeia1CFRx99NFiZZxcuK5jy/c0Bi4PPE2O/EQoLQ+xcKFtIclyvQicCwRjEbezCzR8bJELZ9jam189/6KGH5o8ZlvNXXXXVwr/px+2oo44q/A5uY0Ze+vl22WWX+RtttNH8MSFM73uu6O/z29577134XkW35Zdffv5VV11V+Dqtt7GdtfD/B3Eb25kKP6ObsR9b9OaPTcr0mvnpcdn/zJkzZ/7YLlX4XkU3r3ffffcVvlbrbUzlK/z/oRaMfEISjksvvXRgwlE2ycdUhvljqtsC/+O5sRVrgb8nSFWEwu3aa69d4HWKbiZW0f/3+2ZxuOOOOwo/I+G1cBT9n+fNi/H/4xp7zaL/KbqZ7DFC4WaOFb3GSBjfcpKE8aVsqAfuN4suumh27/Eo4+Sdaecu5BBQd5DDDnjve99bqaabSjIM6RRVKIsqsxfbGe6eV5bbWphGfZKkGNugzfyQlxXbRyyvKR/PSHmlpGJI8FIK2U/aHbPGAAx9FsKRR+mli1cViiqNDTRaYE8NK+wJ36kM10rmMJuN7u+IuFih4AkTja+Sx9Zu0RtJd60VdGwbTINaMdVZg0Yk22DFGtqoKhQ5JtSgefDBB7N7nUE4eBTVusR6JDlq7BRVhALt3LkjHcdQrCPHyYGYEsOslr0QlHvvvTe793jkMq2zzjrZo3qQom0X6kQoVOx1472rC5PZZxkP9SZWLaSKFqmoRRCKAw44oLJQoJ0Qj3yAj59cu0WHvyjGt5XSMwmKgBfbRGGRCRfKqGyH7txFcJ16j1BNRCxiA9ygndoUncYmekG7z+I7Gps6MJ6EQhlArE0xntzFPp6hjmMoru+064bgjdVT+x3qRX6SEVpP59HhULFNWXMwE/83v/lN9ujxMKh9B2eIx65wRdjtuumrBIaqhMMyXNP8pKpOyP831GvLNW33XaiJYjjdtGglFK65JhHdNKEQ3yoatwkrGFWg07IDypC5WVaHEfMa7ahDKCwEDPvQhGWb1UFIbZFbJkWnXeS7W+GwU3QrFNJx2qneI69K1YGzM0KECn3YO5wBValDKGDn0qqyjG7fo5XQa0kJKct4pi5KpQ9F6ouoQyigvr8djWCMEWOwt8Yj2lFVOKhodQgF7GghD44U/boIvRZXa8hDxsEgzaXK989tijp6eHH9t6MRjDEEEEPtaGz5/PAh5CLFCoeDGOtaxb/4xS9m99oTk5oeS8xrxVTvcWDIQ4tZnMQpeJ/qKC0mtGXxkUYwxqAHx6SVx0w+rxUjHHTsuiLa7IaYGEknLuB2xLwWGyIm9d/q77yUMu8eoTj44IM79j6NJ1T+2ghGhuPIQtDhywpfckLC0Wmcoh0xaetUkLqJec3jjz8+u1cO4WDHFUXuvU+dQiGVJ1TK3HilMqy6JlhokomRlOmm47Flf/WrX01/OrB9t912a+up6QSD7HVDyD+qQy9vxXeKaaAW8ui1Yoe56KKLUsOYa1gxUV07aw77KOQNa3aMDO7HmGZcc+fOreRiNBkJNw+M2oA6hcIk2mGHHbJH7bF7LbHEEtmj+vCaMSrojjvumN0Lk6u1Fh/XrG6h4ETRozZEIxgtOPEolL0rcVDFnx1vkBCK2KxTVX296JroNWPa8viMdPoYe6OXKHmWwRtKmxGZbwSjBdu91TWUOiKqS+WKsTd6gfgAFbRMDc0h6DGqVqd47dBiIrIsZYeKNCjhoEpyDYda/hj7RjAKsHVLNQhh5dH6vt/CQSioc1SNUN0zF6hBrstoLcJre4+Qu9VntcPpjN5v4SAUcuhkJ4TYY4890jnQCMY4DDRbIyYiy0XqgvdLrRJHIZCxKpQD30NNC+rAe4gvhPCZXS87XV2pKSG4xb1nu+KoVsSUGOY0h6E+OMbk7GVvonYsueSSadEPI81pqmX4m7vuuitNRovx0HQKD5A2Owr8YwTRKk7FqSMYFsK1EoMwpo5bK4MXTfMJxV8EqpeHAdkhXK8YlZMKRbidGz9lypRGMIpwYVZeeeX0BJ6YZsgmqsGWwizvqu7B5gU78sgjU49KSFBh5WNwz5gxI3um9+jAQghdA5O/DGPPEHbdnHZU94LidcU+tM6JrfacNWtW6j3MnRSNYLTBKmiS24qdsBOCp4MQGYhHHnkkmTZtWuqH74a8h5KEvNgBtnLLsN1qq62yZ/rHCiuskLbCueaaa9qWA+ewlYz9jTfemNpMPIL+vxvYe0cffXSaZWwxMcdisJDIWSOkOU2AL4CLTTjzhsGxUBM23XTTVKWp0vPWamtQCQODtWpFnvLOXnQ2r4L4g3SQKhBoBWWu1zbbbBOtArJV9NE966yz0sWj6jhxGlxyySUL7FqNYERAOBym2G0hkkpD7k3dEQX+NC5zfJpdiWpRJXBYxDAIRU4nwjEervP11lsvFRjdJO0yCsbYW1Q2ja67GRN2xQ033FB40lMjGJHwCKnvrroi9QMDrAPJsFyrHEE97XC6mby9wk4hcbFdmkzjro2EG9fKLj09FADsJ3Yi53YMm1DAZ/LZihIDB4WxsxOxB8tyxxrBqIB8Ko2Trc7DMNj0cRMvVEsySHw252T4rIPGmBk75QMhG6bxSlVEkhu9d/r06WmzLu17yko4ewEviug8v7sG0sMOw9pnpstTq0Lu3F4gpqP5naRLHscQjWB0gDgH1+K6666b3nDLLbekP3sJI/Sggw5Kfe48N+266A0jYjvc3xqpcUAwomPdqd1gx3LN3vSmN6XvbexiaIzvGpCLY6AvuOCCSi04Y+H61XHDTuV+J43FhgkuVvXp1113XaqaxnYbrIIdQvmt69VJALERjBrhRtS/iuv1nHPOSbNwu0E55xZbbJF2PGQojrpAjIeAuGYWFbGEKi1Mi6BhyHMTNxIw7CYdphGMHsDm4N4VAZdHJZ9KDhHVsZ27lw5uR6BmbLzxxqkXjKrUy8zYYcL1Ei3386qrrkpPfrKjtEsTp1a++MUvTlVZKtKyyy6bdi53veqoPWkEow9Is85vZTDs89tkZhiuV+Ou7QMGzipGFSq7+ZvJLhQYhuvVCEZDQwGNYDQ0FNAIRkNDAY1gNDQU0AhGQ0MBjWA0NBTQxDH6hMQ5UXHFSVCgJH+Iy1E5qOCU6PZkCeiFEOh74IEH0nwq10zQVMBUwRJcp7zgqxcMVDAUsZT1+hllwZA/5VxyEW/Rb8dzSYHIi3ZEeQlFnumpTsCgExKZu5InRcP9zWSAIMgQUCchITOvbsyvl8MuCUeeOOl6iWWoq5fQ6XrJHKirscLABCNvglXW72fUBMPAyfU/7bTT0okvD6jT6jUVZnYRGakS4qrUjY8S8sokXmqKoANKpxWSUtvzNJrdd989eetb39rVojIwG4O0tzuVP8fWOQpQk/bff/+0hYy2NRqLaWTQTUmnCSLr1MIhd4pgqAkPpUmMAr4DTUGOk+/mO/qu3ZQNaxrhmrv2xsBYGJNOaz8GJhg+uCZlZeTqx7Dios+ePTtN/OtFunkrJo4ueeuvv36aWNfv4qg68Jm1BPIdHOQZajHaLcbE2GgQYfeuwsAEwzYXakxmBWGADRv0Yau3o4NjDm2pEwIivfrwww9P1dFRgU2p35Vr1ov6izKks2+77bbpmBm7GAYmGJK/QqqUPH2enGHCAGvOZfXu9YpXhsH2GazAw6xe2SVMyA033LDnu2oZVCzXy9gZwxADjWNwt5V1yaYytDu5fxD4PLblfu8S7bDyWoG5vGNXwn7iM7EfTMhu7K06MXbGMHQcwEAFQ3G8RmZl3HvvvUNhZ1iZdbrotikalFvqWOFWRyse+rqz7gZ1XkcRdHqfSQOCbnGN8usVOm4gBmPonHBj2o6BuWthRaErl22x9Glu3bqPnKqCC8kF2Mmqp9Js8803Tz0wdkh2VasKmQevNJC2O3bTkTA/A7sfHc7LIBSarXVaquqoMV44Y94aBEVrsI/zQ6WfMuKqrUzBxav9UNFxaQMVDLiAjLIy9HGNOeutF1hVDjzwwMoGo93FzQrHv84Lx0VdhoWCs8HPq6++OnU7VkWbTudiDCqCbtdyXEFVddOu4NwPtojP7iiG0HegSTz00EPp9SIgXMBlAeMiLFxOWtI+tZWBC4aJR+crOwhFgEsLlF6F/9th9bYKh/TRVnS5sws6uLGblTsfdCcQUZViMcF0/K77dNgYrOQCnFUF2rHPjpOOWTzawQEhUn733XenPXOr7LoyDAhyaxB14IJhAtD3QpKuQL6f0V/btFyumJN4cubMmZOmJnQ6uEUY8HvuuafyZxnELmsyMrRjyRc88aw6hdicklrCMRGL3V2KUr74DtT4hkkUMsChe3Y/jUt6a+xEtEuIudiO6xQKmDCcFCeddFLbA/WLoJbotdsvvBc1LhaC6xxBE7Hunc0YGAtjwkaNwVg7jz1n4IKBmTNnph6HMqxGDkXvB94rZPfkmAyahvXa4DV5dNXTq4pXKwTVlHD3YzHxHs6niLHDjLPdvx+7mTFxqpL+XDEY81wFGwrBsGowukLQtWOCM91AhTr33HOzR+2hy0tyZOjWvUuUQR9mLIYWEtCb+7FreI8YD5TPzgvUT5WYAc95ErubGXtetaEQDDDYuM9C7Lrrrj1bBenzjskKqVCEQoKaDM5BeH9MMKolj0oIE7GXu4bXphKFIMjspH4KRY6dg1YSs3MYe06XgTV1Hg+PxEILLRRsa8lf/Z///CftQtftGXfj4dEw4UJn7umYrdP4IOMF6g7sVCHvix2Wnl33AZA5vIp2zjIsJMcdd1zaS3ZQ+Aw6w0szCmkdSgaGZsfAnnvuGbUK2ra5BXkf6sJuQSUICSb9njel367jInhSfJYQAqRcqXXjNU34EI4sGFQcqhWLA80kZKNZbIZKMKyAJ554YvaoHIaSA0nqUhNEUkPvbdXRdXwQ6kARIsLcnSHEYULnb3eCs0FCMR7XTDR+WKCGxriUh0owIA4QayjxOx9zzDEdF6O0wuAK7RZ2iSrBtn7gM4VUGfQis5UTIAQbZ5AqZxE0k1DO1dAJBrckQynm+Cy5S9Qq2yODqRtiXMGHHXZYXz1QsRjoEIzKOtPTvVZMnEeMZ9ggqLyJZQydYMAqyLiNsTdAJzQA8q46sTsMslhEiGE9646wSl0JcdNNN2X3uifmtU444YTag3d1EVpMhlIwILMy1t4AbxW7Q8eIr1VMJJNjEwpOxRi5g0RaTQiHs9SFyHWIKukh/cZiUuYQGFrBAENJ/lFMfCOHesUO8MVPPfXU1DjnPSlTI2KCYNLOhxnu7lDQz4HxdREK6NldF1544ezRcFKW7DjUggE5Lwy4WLWqFUUyjCwHE55++umpADCy3QhMLjQSzkJUqQehzrl14yL1/9KpY1+DyrLzzjtnj4opy2BuhwXFZ8i/U34LYTUe9p5YZQefDjy7NhaBJP74King7cgPLNSDyM+LLrqodNLYuWLO08vrAuQCcf8KKG2wwQbpMVixunb+Go7ZevDBB//3GhIJQ7hGoYxSDRRiYjAEQuMzHj919zq2wE8LS2jHuPbaawdaXBYL13uRGj0ygoG8OVeMN6ROGLba5JRhQgs6jk8+FHX2vzGxDzvYGWecscBrUJFicoxEdEOTMXbCstO6cU0T7hhhHjRSe4pc2UOvSrViYigCiom21smKK66Y3WsPY3T8hIadxoWPibVwGRe9ht1MqoqVuoy8/LOMmIAolbMboaD2xhwyPwy0G9uREgxYhUSfTUQpEf1ArXYZ1I6ynCU7nP61ZZiw2lS249Zbb+06VgO15SFUAHZDFWfJoGnXwmnkBAP0dcad3UPxDhtgkHD35jp4O/xNGfq2lk1aPaxCPbas0iEnhQS5EGUd6CcaeZPo8YykYOTYPQT2uGUJSEwBTyeEJpNIaijTN9R1kXu5rAGdVbjdILbC1umWblvUcBqMCu3GdqQFA3aPXEC03afT153JqbdViLISSp9npZVWyh4Vw1Okz2o7HPSuYUAZWuWH2sjECBfvXzfw8vgso4CduoiRF4wcAqJoiFrF/qB22EXqyNW58847s3vtEXkuShmh2ggkxdRDMHiLIuxWcK8R42YNEWqkDdds0Oppv2g3tiPlru0Gxq00aW5EF4POrj0NPF/Wgt7EjC2pFUvgWmVzKNedOXNm5QntNU455ZTUC6W4R+VZTPKiGE+o+J/HabXVVsselUNF1U0wDzIK2LFjpJKH4kl27lEQLteiaOwnjWCUYQKEWkkSomGO5OaJkGVpDnB0V4yQteK1xwcoQ6/Bpc57GBvYHAQi+Pp/FTFhVKluiAm+iUQPM1b1UJkrta6qUKBocoe8Xz5LNykx/eCGG27I7i1IIxhjxOj/dpVhRmvPUNqKHrp18drXvja7V4zPMoxnm7RSNqaNYIzBlRrShwXpbL3Dih5SIbbeeuvsXvfEpJSHdrBBYizLUosawRiDqhATRa/SCbCfGGRlviHKskmrsvbaa2f32qPkdljVqbPPPju7V0wjGBkOSQzhNNY6Amh1Q2BDRxSIpXRiX7TDYhKqaBRT6XfCZww8lFqeltEIRgaXamigJfNxXw4TBjmmGULIW9UJ++67b3avPUceeWRU4mI/0V0mVJvSCEaG4GBMlZ7gYR01IXUhbToU7RaHWWeddbJH9SEFJ5QwKEYQU4/eL4xdTFluIxgtcEGGjHDpDrwZw7AKqon/WkR9u6KiOtWoHK8pmBlCSe0wePWMmc8Rqu9X/9IIRgtyrg455JDsUXvozfpZDdKw5PGJmZRW9TqN7vF47VCtOftHf1sR/UHBQWHMYmwebZKGpnftsGAV5H8Pde5TJy4SLrmv30U51AGFSzE13AzzadOmJVOm9GYN5OpeY4010pr6MkTc9Y2dPn16WurbTwiFXTPm+DPeyR133LERjPHIA2JvCFCF0s2vvPLKNN3cqhxKK68DO5SjxxylFWPnyLHabrvtojJqu8Hra7QdaiqhilHBlZ1Zm6NeCWsr1Cc7q2sWgi2mI/uMGTOSqa/bdrvZzwpUqE02HIyoTDQUSQbhsCIts8wyPa1c4yZ24o/2pTE7BVuJStBtbUUMFgVVjvPmzQuW8Pq9SkU5SoSj7o71rUiY5IGKPSiTUGy11VbJL269LZl6y7xfzn7dNq+NqheeLBis5ZZbLvX26JQR4vrrr08nhWvI7Vv37qGkVQzl4IMPTlWSEJwIhGK99dbry6oMi4mUdqfNtqtxyFGpeN5556Wfze5ct2pll7jwwgvTREYnKsXAVa90YOrUhZO3ztormfqXvz46+8c33JBs+aotGuFoQQMzrWskD4bcobASGmwqhZRzVX3dCogVT4SWKuAor1j0ZXWGRz/H0yS3aypQsovGQB2kWmk1xF7rdse1q9rlXTNNJULnnORwHrDZll76WcnMWXuO7Wg/SRZafIlnp2nna665RvLJ4/4vWWvG9PSPG/6L1VrhToxw5Bjg7bffPj30XuYugzM2/VoNhvckFFbfGHWuFYVOPGuD6jButVYBWLW7ujoSN619GPOxNSxS4gmAXl4cJnPnzk1rbWIxVmrcn/ikRZL93vPe5Oc/nzf2bJL8P24etcSZ1+VIAAAAAElFTkSuQmCC;" vertex="1" parent="1">
                    <mxGeometry x="650" y="510" width="45" height="42.5" as="geometry"/>
                </mxCell>
                <mxCell id="37" style="edgeStyle=none;html=1;entryX=0.413;entryY=1.01;entryDx=0;entryDy=0;entryPerimeter=0;" edge="1" parent="1" source="33" target="9">
                    <mxGeometry relative="1" as="geometry"/>
                </mxCell>
            </root>
        </mxGraphModel>
    </diagram>
</mxfile>